<svg xmlns="http://www.w3.org/2000/svg" xmlns:xlink="http://www.w3.org/1999/xlink" viewBox="0 0 150 150"><defs><linearGradient id="a"><stop offset="0" stop-color="#fff" stop-opacity=".5"/><stop offset="1" stop-color="#fff" stop-opacity=".1"/></linearGradient><linearGradient id="d" x1=".212" x2=".9" y1=".117" y2=".656" xlink:href="#a"/><linearGradient id="c" x1=".065" x2=".609" y1=".139" y2="1.806" xlink:href="#a"/><linearGradient id="b" x1=".156" x2=".986" y1=".078" y2="1.293" xlink:href="#a"/></defs><path fill="#fbd900" fill-rule="evenodd" stroke="#000" stroke-linejoin="round" stroke-width="1.25" d="m38.153 33.449c2.3519 1.2263 22.368 5.4878 33.972 5.2265 16.527 0.26132 30.314-6.0496 32.927-7.0558 0 1.4337-2.3069 10.273-2.6132 15.679 0 5.4475 1.8293 28.415 2.0906 33.711 0.86784 6.1782 2.704 13.861 4.4425 19.077 1.8293 3.5539-23.563 9.854-34.756 10.453-12.603 0.78397-38.937-4.3711-37.369-8.3624 0-3.9684 3.6585-13.383 3.6585-19.599 0.52265-6.0249-0.26132-23.273-0.26132-30.836-0.26132-6.7796-1.0537-12.56-2.0906-18.293z"/><path fill="#fbf3bf" fill-rule="evenodd" stroke="#000" stroke-width="1.25" d="m36.324 103.22c-5.5856-1.331-7.879 10.113-1.8293 12.021 6.3674 3.7542 29.703 7.0558 39.199 6.2718 11.101-0.26132 31.193-4.4425 35.801-8.3624 6.1342-3.9199 5.4654-13.066 0-12.021-3.2786 3.6585-26.699 8.885-36.585 9.4077-9.2228 0.78397-30.749-2.5261-36.585-7.3171z"/><path fill="#fbf3bf" fill-rule="evenodd" stroke="#000" stroke-linejoin="bevel" stroke-width="1.25" d="m103.07 42.609c1.2447-3.2112 9.6386-6.9715 12.363-7.5155 4.6868-1.0506 12.385-1.3878 16.764 4.2801 7.9391 10.323 6.7623 28.625 2.8611 34.638-2.7761 5.1039-9.3714 10.282-14.636 11.878-5.1504 1.5337-12.706 2.661-14.332 3.7116-0.35081-1.2964-1.327-7.3878-1.3809-9.0712 1.9506 0.12827 7.489-0.89271 11.696-1.868 3.9012-0.89882 6.4496-3.2741 9.3351-6.2224 4.9944-4.6998 4.3439-21.159 0.53709-25.056-2.2326-2.2625-6.8482-3.9044-9.9148-3.323-4.9922 1.0316-13.677 7.3655-13.677 6.9799-0.50871-2.0795-0.25075-6.1591 0.38408-8.4303z"/><path fill="#fbe600" fill-rule="evenodd" stroke="#000" stroke-linejoin="round" stroke-width="1.25" d="m57.712 46.931c1.6552 1.2066-1.3552 16.955-0.9414 28.131 0.41381 14.295 1.4434 23.528-0.52163 24.636-3.1077 1.6742-9.901-0.13575-12.046-2.4208-1.2732-1.5066 1.8058-10.24 2.0127-16.429-0.41381-8.7111-1.7027-33.303-0.46123-34.778 2.2524-2.0537 9.6813-1.1525 11.957 0.86051z"/><path fill="#fbe600" fill-rule="evenodd" stroke="#000" stroke-width="1.25" d="m66.303 47.6c-1.4783 1.4244-0.06341 19.625-0.06341 22.559 0.30535 3.8084-1.101 27.453-0.17709 28.954 1.8478 2.1219 10.215 2.442 13.001-0.35644 1.5052-1.8748-0.47782-22.544-0.47782-27.68 0-5.5107 1.4072-22.052-0.44067-23.58-2.0326-2.1493-8.4393-3.1796-11.842 0.1028z"/><path fill="#fbe600" fill-rule="evenodd" stroke="#000" stroke-linejoin="round" stroke-width="1.25" d="m85.991 46.156c-1.6578 1.2564 1.1794 15.8 1.194 26.982 0.13765 14.3-1.2442 24.662 0.82406 25.709 3.2679 1.5784 10.881-1.5417 13.001-3.8909 1.2523-1.5446-1.4114-10.179-2.082-16.357-0.98382-8.1643 0.1476-33.129-1.1896-34.564-2.4016-1.9837-9.4815 0.0401-11.747 2.1214z"/><path fill="url(#d)" fill-rule="evenodd" d="m79.272 39.684c-4.9892 1.1087-36.587-3.1413-39.729-4.8044 0.92392 4.6196 3.1413 45.272 1.6631 49.892 0.18478 2.0326-3.8805 15.152-3.6957 17.924 17.185-68.37 39.729-48.968 41.761-63.011z"/><path fill="url(#c)" fill-rule="evenodd" d="m35.717 103.87c-3.0512-0.89742-5.205 6.8204-2.8718 9.1537 5.7435 2.6923 13.282-2.3333 38.23-1.6154-12.743-0.35897-31.589-2.8718-35.358-7.5383z"/><path fill="url(#b)" fill-rule="evenodd" d="m104.28 42.13c4.4871-4.4871 8.7947-5.564 14-6.4614 8.7947-2.3333 14.897 3.7692 16.872 11.846-4.4871-7.1794-10.231-8.2563-14.179-8.4358-4.1281 0.71794-15.795 7.8973-16.872 9.1537s-0.71794-4.1281 0.17948-6.1025z"/><path fill="#fff" fill-rule="evenodd" stroke="#000" stroke-linejoin="round" stroke-width="1.25" d="m37.098 85.903c2.3832 1.159 4.2811-1.5693 3.4649-3.0303 0.91503 0.08658 1.7948-0.3254 1.7948-1.7948 0.72044-0.72044-0.36461-1.8544-0.36461-2.7357-0.99354-0.99354 0.00564-2.165 0.00564-3.7257 0-1.5535 0.89742-2.5024 0.89742-4.1281 0-2.3611 2.0594-1.1807 0.89742-4.6666 1.0882-0.42455 2.2741-1.4845 0.89742-2.6923 2.1601-0.23952 3.2186-2.3542 0.53845-4.6666 4.0734 0-4.2302-8.7305 2.6923-6.9999 2.222-0.55551 1.7948-2.2151 1.7948-4.3076 2.8718 3.9486 6.8954 2.6213 7.5383 0 1.3486 4.3998 10.59 2.5869 10.59-2.8717 0.17948 6.7502 7.1177 3.4046 8.4358 3.9486-1.6154 1.8662 1.584 9.0796 4.3076 9.1537-6.3097 4.7323-5.1729 13.001 2.5128 14.538 3.8938 0 5.3845-3.2785 5.3845-7.8973 1.2564 2.6447 6.972 4.2797 6.9999-0.17948 2.8718 5.5446 6.4959-1.4704 4.3076-2.1538 5.0256 1.9057 3.0907-7.0788 1.2564-9.1537 2.8718-0.91448 1.9567-7.5207 0.17948-9.6921 2.6212 2.6652 6.7385-0.83112 6.282-5.923 1.228 3.4671 9.1475-0.36828 3.7692-8.4358 0-1.5451-4.4871-1.7488-5.564-0.53845-0.01541-5.4462-4.0997-9.6921-6.9999-8.6152 1.799-2.6923-9.048-4.8989-11.308-0.53845 1.3505-5.7008-13.811-9.3332-14.179-6.1025-1.7482-2.5128-11.771-2.5586-14.718 6.2819 0-4.8606-16.309-6.9999-15.974 0.35897-3.4899-2.4331-9.2274 0.35897-8.7947 3.2307-5.3845-2.7034-7.842 9.5611-3.4102 10.231-2.5128 2.2624-2.6923 11.311 0.53845 11.128-1.9743 2.1297-0.89742 8.4366 1.2564 8.6152-1.6794 2.3206 0.24571 13.674 7.1794 11.846 0 2.5234 0.70877 4.6941-0.17948 7.3588 0 1.5455-0.89742 2.8528-0.89742 4.4871 0.37206 0.74412-1.2597 2.7244 0.53845 3.9486-4.2167 1.7593-3.3024 4.4642-1.6701 5.7226z"/><path fill="none" stroke="#000" stroke-linejoin="round" stroke-width="1.25" d="m37.007 41.137c-1.5094-1.6494 1.2214-7.0396 4.2428-6.7622 0.68861-2.4741 2.5859-2.8927 4.6875-2.1875-1.0477-2.0449 1.5031-3.9917 3.75-1.6818 1.5171-2.6218 4.6776-4.6451 6.3563-3.2313-0.13192-3.373 6.0633-6.7936 8.3312-3.8369 0 0.606-0.36267 1.875 0 1.875"/><path fill="none" stroke="#000" stroke-linejoin="round" stroke-width="1.25" d="m74.062 30.938c-0.10381-4.7209 14.009-8.5906 11.25-0.3125 1.2692-0.63461 6.875-1.299 5.8441 2.3133 4.1235-0.46558 10.39 1.1047 6.6624 6.6883 2.3959 1.8057 1.3304 6.6959-0.31898 5.061"/></svg>